<svg width="178" height="149" viewBox="0 0 178 149" fill="none" xmlns="http://www.w3.org/2000/svg">
<g opacity="0.2">
<path fill-rule="evenodd" clip-rule="evenodd" d="M109.221 153.701C111.123 153.102 112.815 151.975 114.101 150.452C115.387 148.928 116.213 147.071 116.485 145.095L122.082 109.341L122.128 109.082L122.338 108.974L154.518 93.3586C156.374 92.5707 157.964 91.2663 159.1 89.6006C160.235 87.9349 160.869 85.978 160.924 83.9627C160.98 81.9474 160.455 79.9586 159.413 78.2328C158.371 76.5071 156.855 75.1171 155.045 74.2282L122.841 58.1693L122.768 58.1392C122.723 58.1174 122.684 58.0846 122.655 58.0439C122.625 58.0032 122.606 57.9558 122.6 57.906L122.587 57.8674L117.644 21.5781C117.38 19.6093 116.566 17.7443 115.3 16.2131C114.035 14.6819 112.366 13.5361 110.482 12.9059C108.598 12.2756 106.575 12.1861 104.643 12.6476C102.711 13.109 100.947 14.1029 99.5516 15.5163L74.2029 41.1489C74.0064 41.3056 73.7587 41.3835 73.5079 41.3675L38.0535 34.8694C36.099 34.5032 34.081 34.6934 32.2294 35.4183C30.3778 36.1433 28.7671 37.3738 27.5808 38.9697C26.3945 40.5655 25.6804 42.4626 25.5198 44.4445C25.3593 46.4265 25.7587 48.4137 26.6727 50.1797L43.3976 82.7848L43.4067 82.8137C43.4338 82.8547 43.4479 82.8998 43.4492 82.9489L43.4115 83.0986L43.3688 83.1651L26.168 114.773C25.1963 116.537 24.7513 118.543 24.8858 120.553C25.0204 122.563 25.7289 124.491 26.9271 126.11C28.1254 127.729 29.763 128.97 31.6457 129.686C33.5283 130.402 35.5768 130.562 37.5479 130.148L72.863 124.535L73.0971 124.504L73.2828 124.689L98.3392 150.802C99.692 152.267 101.433 153.317 103.36 153.83C105.286 154.343 107.319 154.299 109.221 153.701Z" fill="url(#paint0_radial_270_535)" fill-opacity="0.78"/>
</g>
<defs>
<radialGradient id="paint0_radial_270_535" cx="0" cy="0" r="1" gradientUnits="userSpaceOnUse" gradientTransform="translate(88.8347 88.8511) rotate(-107.459) scale(67.9792 70.8106)">
<stop stop-color="#9DC1DD" stop-opacity="0.78"/>
<stop offset="1" stop-color="#9DC1DD" stop-opacity="0.78"/>
</radialGradient>
</defs>
</svg>
